<?xml version="1.0" standalone="no"?>
<!DOCTYPE svg PUBLIC "-//W3C//DTD SVG 20010904//EN"
 "http://www.w3.org/TR/2001/REC-SVG-20010904/DTD/svg10.dtd">
<svg version="1.0" xmlns="http://www.w3.org/2000/svg"
 width="128.000000pt" height="128.000000pt" viewBox="0 0 128.000000 128.000000"
 preserveAspectRatio="xMidYMid meet">
<metadata>
Created by potrace 1.14, written by Peter Selinger 2001-2017
</metadata>
<g transform="translate(0.000000,128.000000) scale(0.100000,-0.100000)"
fill="#000000" stroke="none">
<path d="M477 1266 c4 -13 3 -17 -5 -12 -6 3 -13 2 -17 -4 -3 -5 -15 -10 -26
-10 -29 0 -127 -53 -190 -104 -96 -75 -191 -218 -205 -305 -4 -23 -10 -41 -15
-41 -5 0 -5 -7 -2 -17 4 -9 2 -14 -4 -10 -16 10 -17 -211 -1 -231 7 -9 8 -13
2 -9 -6 3 -11 0 -11 -7 0 -8 6 -12 13 -9 9 3 12 -2 10 -14 -2 -10 4 -41 14
-70 46 -142 172 -282 315 -353 49 -24 99 -44 112 -44 13 0 23 -4 23 -9 0 -4
10 -5 21 -2 12 4 19 3 16 -2 -3 -5 39 -10 99 -11 57 0 102 2 100 7 -3 4 1 8 9
8 8 0 12 -4 9 -9 -7 -12 10 -10 22 2 6 6 21 12 34 15 102 20 237 100 315 188
79 88 154 243 138 285 -5 11 -3 13 7 7 10 -6 12 -3 8 13 -4 12 -3 20 2 17 4
-2 7 38 8 89 0 98 -27 226 -63 296 -85 167 -245 298 -400 330 -33 6 -67 15
-75 19 -28 14 -160 13 -178 -1 -10 -8 -13 -9 -9 -1 5 8 1 11 -12 10 -11 0 -18
-4 -15 -8 9 -15 -31 -14 -44 1 -10 13 -11 12 -5 -4z"/>
</g>
</svg>
